<svg xmlns="http://www.w3.org/2000/svg" viewBox="0 0 540.5 567.22"><defs><style>.cls-1{isolation:isolate;}.cls-2{fill:#ccc;}.cls-3{fill:#e6e6e6;}.cls-4{fill:#b3b3b3;}.cls-5{mix-blend-mode:multiply;}.cls-6{fill:#01c38d;}.cls-7{mix-blend-mode:hard-light;}.cls-8{fill:#132d46;}</style></defs><g class="cls-1"><g id="Capa_2" data-name="Capa 2"><g id="ISO"><g id="CUBO"><polygon class="cls-2" points="342.28 243.52 270.28 279.52 198.28 243.52 270.28 207.52 342.28 243.52"/><polygon class="cls-3" points="270.28 279.52 270.28 351.52 198.21 315.27 198.28 243.52 270.28 279.52"/><polygon class="cls-4" points="342.28 243.52 342.28 315.52 270.28 351.52 270.28 279.52 342.28 243.52"/></g><g id="CUBO-2" data-name="CUBO"><polygon class="cls-2" points="243.28 297.52 171.28 333.52 99.28 297.52 171.28 261.52 243.28 297.52"/><polygon class="cls-3" points="171.28 333.52 171.28 405.52 99.21 369.27 99.28 297.52 171.28 333.52"/><polygon class="cls-4" points="243.28 297.52 243.28 369.52 171.28 405.52 171.28 333.52 243.28 297.52"/></g><g id="CUBO-3" data-name="CUBO"><polygon class="cls-2" points="144.28 351.52 72.28 387.52 0.28 351.52 72.28 315.52 144.28 351.52"/><polygon class="cls-3" points="72.17 387.54 72.17 459.47 0.17 423.25 0.24 351.57 72.17 387.54"/><polygon class="cls-4" points="144.17 351.52 144.17 423.52 72.17 459.52 72.17 387.52 144.17 351.52"/><g class="cls-5"><polygon class="cls-6" points="144.28 351.52 72.28 387.52 0.28 351.52 72.28 315.52 144.28 351.52"/><polygon class="cls-6" points="72.17 387.54 72.17 459.47 0.17 423.25 0.24 351.57 72.17 387.54"/><polygon class="cls-6" points="144.17 351.52 144.17 423.52 72.17 459.52 72.17 387.52 144.17 351.52"/></g></g><g id="CUBO-4" data-name="CUBO"><polygon class="cls-2" points="441.17 297.22 369.17 333.22 297.17 297.22 369.17 261.22 441.17 297.22"/><polygon class="cls-3" points="369.17 333.22 369.17 405.22 297.1 368.97 297.17 297.22 369.17 333.22"/><polygon class="cls-4" points="441.17 297.22 441.17 369.22 369.17 405.22 369.17 333.22 441.17 297.22"/></g><g id="CUBO-5" data-name="CUBO"><polygon class="cls-2" points="342.17 351.22 270.17 387.22 198.17 351.22 270.17 315.22 342.17 351.22"/><polygon class="cls-3" points="270.17 387.22 270.17 459.22 198.1 422.97 198.17 351.22 270.17 387.22"/><polygon class="cls-4" points="342.17 351.22 342.17 423.22 270.17 459.22 270.17 387.22 342.17 351.22"/></g><g id="CUBO-6" data-name="CUBO"><polygon class="cls-2" points="243.17 405.22 171.17 441.22 99.17 405.22 171.17 369.22 243.17 405.22"/><polygon class="cls-3" points="171.17 441.24 171.17 513.17 99.17 476.95 99.24 405.27 171.17 441.24"/><polygon class="cls-4" points="243.17 405.22 243.17 477.22 171.17 513.22 171.17 441.22 243.17 405.22"/><g class="cls-7"><polygon class="cls-8" points="243.17 405.22 171.17 441.22 99.17 405.22 171.17 369.22 243.17 405.22"/><polygon class="cls-8" points="171.17 441.24 171.17 513.17 99.17 476.95 99.24 405.27 171.17 441.24"/><polygon class="cls-8" points="243.17 405.22 243.17 477.22 171.17 513.22 171.17 441.22 243.17 405.22"/></g></g><g id="CUBO-7" data-name="CUBO"><polygon class="cls-2" points="540.17 351.22 468.17 387.22 396.17 351.22 468.17 315.22 540.17 351.22"/><polygon class="cls-3" points="468.17 387.24 468.17 459.17 396.17 422.95 396.24 351.27 468.17 387.24"/><polygon class="cls-4" points="540.17 351.22 540.17 423.22 468.17 459.22 468.17 387.22 540.17 351.22"/><g class="cls-5"><polygon class="cls-6" points="540.17 351.22 468.17 387.22 396.17 351.22 468.17 315.22 540.17 351.22"/><polygon class="cls-6" points="468.17 387.24 468.17 459.17 396.17 422.95 396.24 351.27 468.17 387.24"/><polygon class="cls-6" points="540.17 351.22 540.17 423.22 468.17 459.22 468.17 387.22 540.17 351.22"/></g></g><g id="CUBO-8" data-name="CUBO"><polygon class="cls-2" points="441.17 405.22 369.17 441.22 297.17 405.22 369.17 369.22 441.17 405.22"/><polygon class="cls-3" points="369.17 441.24 369.17 513.17 297.17 476.95 297.24 405.27 369.17 441.24"/><polygon class="cls-4" points="441.17 405.22 441.17 477.22 369.17 513.22 369.17 441.22 441.17 405.22"/><g class="cls-7"><polygon class="cls-8" points="441.17 405.22 369.17 441.22 297.17 405.22 369.17 369.22 441.17 405.22"/><polygon class="cls-8" points="369.17 441.24 369.17 513.17 297.17 476.95 297.24 405.27 369.17 441.24"/><polygon class="cls-8" points="441.17 405.22 441.17 477.22 369.17 513.22 369.17 441.22 441.17 405.22"/></g></g><g id="CUBO-9" data-name="CUBO"><polygon class="cls-2" points="342.17 459.22 270.17 495.22 198.17 459.22 270.17 423.22 342.17 459.22"/><polygon class="cls-3" points="270.17 495.24 270.17 567.17 198.17 530.95 198.24 459.27 270.17 495.24"/><polygon class="cls-4" points="342.17 459.22 342.17 531.22 270.17 567.22 270.17 495.22 342.17 459.22"/><g class="cls-7"><polygon class="cls-8" points="342.17 459.22 270.17 495.22 198.17 459.22 270.17 423.22 342.17 459.22"/><polygon class="cls-8" points="270.17 495.24 270.17 567.17 198.17 530.95 198.24 459.27 270.17 495.24"/><polygon class="cls-8" points="342.17 459.22 342.17 531.22 270.17 567.22 270.17 495.22 342.17 459.22"/></g></g><g id="CUBO-10" data-name="CUBO"><polygon class="cls-2" points="342 135.85 270 171.85 198 135.85 270 99.85 342 135.85"/><polygon class="cls-3" points="270 171.85 270 243.85 197.93 207.6 198 135.85 270 171.85"/><polygon class="cls-4" points="342 135.85 342 207.85 270 243.85 270 171.85 342 135.85"/></g><g id="CUBO-11" data-name="CUBO"><polygon class="cls-2" points="243 189.85 171 225.85 99 189.85 171 153.85 243 189.85"/><polygon class="cls-3" points="171 225.85 171 297.85 98.93 261.6 99 189.85 171 225.85"/><polygon class="cls-4" points="243 189.85 243 261.85 171 297.85 171 225.85 243 189.85"/></g><g id="CUBO-12" data-name="CUBO"><polygon class="cls-2" points="144 243.85 72 279.85 0 243.85 72 207.85 144 243.85"/><polygon class="cls-3" points="72.17 279.87 72.17 351.8 0.17 315.58 0.24 243.9 72.17 279.87"/><polygon class="cls-4" points="144.17 243.85 144.17 315.85 72.17 351.85 72.17 279.85 144.17 243.85"/><g class="cls-5"><polygon class="cls-6" points="144 243.85 72 279.85 0 243.85 72 207.85 144 243.85"/><polygon class="cls-6" points="72.17 279.87 72.17 351.8 0.17 315.58 0.24 243.9 72.17 279.87"/><polygon class="cls-6" points="144.17 243.85 144.17 315.85 72.17 351.85 72.17 279.85 144.17 243.85"/></g></g><g id="CUBO-13" data-name="CUBO"><polygon class="cls-2" points="440.89 189.55 368.89 225.55 296.89 189.55 368.89 153.55 440.89 189.55"/><polygon class="cls-3" points="368.89 225.55 368.89 297.55 296.82 261.3 296.89 189.55 368.89 225.55"/><polygon class="cls-4" points="440.89 189.55 440.89 261.55 368.89 297.55 368.89 225.55 440.89 189.55"/></g><g id="CUBO-14" data-name="CUBO"><polygon class="cls-2" points="341.89 243.55 269.89 279.55 197.89 243.55 269.89 207.55 341.89 243.55"/><polygon class="cls-3" points="269.89 279.55 269.89 351.55 197.82 315.3 197.89 243.55 269.89 279.55"/><polygon class="cls-4" points="341.89 243.55 341.89 315.55 269.89 351.55 269.89 279.55 341.89 243.55"/></g><g id="CUBO-15" data-name="CUBO"><polygon class="cls-2" points="242.89 297.55 170.89 333.55 98.89 297.55 170.89 261.55 242.89 297.55"/><polygon class="cls-3" points="171.17 333.57 171.17 405.5 99.17 369.28 99.24 297.6 171.17 333.57"/><polygon class="cls-4" points="243.17 297.55 243.17 369.55 171.17 405.55 171.17 333.55 243.17 297.55"/><g class="cls-7"><polygon class="cls-8" points="242.89 297.55 170.89 333.55 98.89 297.55 170.89 261.55 242.89 297.55"/><polygon class="cls-8" points="171.17 333.57 171.17 405.5 99.17 369.28 99.24 297.6 171.17 333.57"/><polygon class="cls-8" points="243.17 297.55 243.17 369.55 171.17 405.55 171.17 333.55 243.17 297.55"/></g></g><g id="CUBO-16" data-name="CUBO"><polygon class="cls-2" points="539.89 243.55 467.89 279.55 395.89 243.55 467.89 207.55 539.89 243.55"/><polygon class="cls-3" points="468.17 279.57 468.17 351.5 396.17 315.28 396.24 243.6 468.17 279.57"/><polygon class="cls-4" points="540.17 243.55 540.17 315.55 468.17 351.55 468.17 279.55 540.17 243.55"/><g class="cls-5"><polygon class="cls-6" points="539.89 243.55 467.89 279.55 395.89 243.55 467.89 207.55 539.89 243.55"/><polygon class="cls-6" points="468.17 279.57 468.17 351.5 396.17 315.28 396.24 243.6 468.17 279.57"/><polygon class="cls-6" points="540.17 243.55 540.17 315.55 468.17 351.55 468.17 279.55 540.17 243.55"/></g></g><g id="CUBO-17" data-name="CUBO"><polygon class="cls-2" points="440.89 297.55 368.89 333.55 296.89 297.55 368.89 261.55 440.89 297.55"/><polygon class="cls-3" points="369.17 333.57 369.17 405.5 297.17 369.28 297.24 297.6 369.17 333.57"/><polygon class="cls-4" points="441.17 297.55 441.17 369.55 369.17 405.55 369.17 333.55 441.17 297.55"/><g class="cls-7"><polygon class="cls-8" points="440.89 297.55 368.89 333.55 296.89 297.55 368.89 261.55 440.89 297.55"/><polygon class="cls-8" points="369.17 333.57 369.17 405.5 297.17 369.28 297.24 297.6 369.17 333.57"/><polygon class="cls-8" points="441.17 297.55 441.17 369.55 369.17 405.55 369.17 333.55 441.17 297.55"/></g></g><g id="CUBO-18" data-name="CUBO"><polygon class="cls-2" points="341.89 351.55 269.89 387.55 197.89 351.55 269.89 315.55 341.89 351.55"/><polygon class="cls-3" points="270.17 387.57 270.17 459.5 198.17 423.28 198.24 351.6 270.17 387.57"/><polygon class="cls-4" points="342.17 351.55 342.17 423.55 270.17 459.55 270.17 387.55 342.17 351.55"/><g class="cls-7"><polygon class="cls-8" points="341.89 351.55 269.89 387.55 197.89 351.55 269.89 315.55 341.89 351.55"/><polygon class="cls-8" points="270.17 387.57 270.17 459.5 198.17 423.28 198.24 351.6 270.17 387.57"/><polygon class="cls-8" points="342.17 351.55 342.17 423.55 270.17 459.55 270.17 387.55 342.17 351.55"/></g></g><g id="CUBO-19" data-name="CUBO"><polygon class="cls-2" points="342.61 36 270.61 72 198.61 36 270.61 0 342.61 36"/><polygon class="cls-3" points="270.17 72.02 270.17 143.95 198.17 107.73 198.24 36.05 270.17 72.02"/><polygon class="cls-4" points="342.17 36 342.17 108 270.17 144 270.17 72 342.17 36"/><g class="cls-7"><polygon class="cls-8" points="342.61 36 270.61 72 198.61 36 270.61 0 342.61 36"/><polygon class="cls-8" points="270.17 72.02 270.17 143.95 198.17 107.73 198.24 36.05 270.17 72.02"/><polygon class="cls-8" points="342.17 36 342.17 108 270.17 144 270.17 72 342.17 36"/></g></g><g id="CUBO-20" data-name="CUBO"><polygon class="cls-2" points="243.61 90 171.61 126 99.61 90 171.61 54 243.61 90"/><polygon class="cls-3" points="171.17 126.02 171.17 197.95 99.17 161.73 99.24 90.05 171.17 126.02"/><polygon class="cls-4" points="243.17 90 243.17 162 171.17 198 171.17 126 243.17 90"/><g class="cls-7"><polygon class="cls-8" points="243.61 90 171.61 126 99.61 90 171.61 54 243.61 90"/><polygon class="cls-8" points="171.17 126.02 171.17 197.95 99.17 161.73 99.24 90.05 171.17 126.02"/><polygon class="cls-8" points="243.17 90 243.17 162 171.17 198 171.17 126 243.17 90"/></g></g><g id="CUBO-21" data-name="CUBO"><polygon class="cls-2" points="144.61 144 72.61 180 0.61 144 72.61 108 144.61 144"/><polygon class="cls-3" points="72.17 180.02 72.17 251.95 0.17 215.73 0.24 144.05 72.17 180.02"/><polygon class="cls-4" points="144.17 144 144.17 216 72.17 252 72.17 180 144.17 144"/><g class="cls-5"><polygon class="cls-6" points="144.61 144 72.61 180 0.61 144 72.61 108 144.61 144"/><polygon class="cls-6" points="72.17 180.02 72.17 251.95 0.17 215.73 0.24 144.05 72.17 180.02"/><polygon class="cls-6" points="144.17 144 144.17 216 72.17 252 72.17 180 144.17 144"/></g></g><g id="CUBO-22" data-name="CUBO"><polygon class="cls-2" points="441.5 89.7 369.5 125.7 297.5 89.7 369.5 53.7 441.5 89.7"/><polygon class="cls-3" points="369.17 125.72 369.17 197.65 297.17 161.43 297.24 89.75 369.17 125.72"/><polygon class="cls-4" points="441.17 89.7 441.17 161.7 369.17 197.7 369.17 125.7 441.17 89.7"/><g class="cls-7"><polygon class="cls-8" points="441.5 89.7 369.5 125.7 297.5 89.7 369.5 53.7 441.5 89.7"/><polygon class="cls-8" points="369.17 125.72 369.17 197.65 297.17 161.43 297.24 89.75 369.17 125.72"/><polygon class="cls-8" points="441.17 89.7 441.17 161.7 369.17 197.7 369.17 125.7 441.17 89.7"/></g></g><g id="CUBO-23" data-name="CUBO"><polygon class="cls-2" points="342.5 143.7 270.5 179.7 198.5 143.7 270.5 107.7 342.5 143.7"/><polygon class="cls-3" points="270.17 179.72 270.17 251.65 198.17 215.43 198.24 143.75 270.17 179.72"/><polygon class="cls-4" points="342.17 143.7 342.17 215.7 270.17 251.7 270.17 179.7 342.17 143.7"/></g><g id="CUBO-24" data-name="CUBO"><polygon class="cls-2" points="243.5 197.7 171.5 233.7 99.5 197.7 171.5 161.7 243.5 197.7"/><polygon class="cls-3" points="171.17 233.72 171.17 305.65 99.17 269.43 99.24 197.75 171.17 233.72"/><polygon class="cls-4" points="243.17 197.7 243.17 269.7 171.17 305.7 171.17 233.7 243.17 197.7"/><g class="cls-5"><polygon class="cls-6" points="243.5 197.7 171.5 233.7 99.5 197.7 171.5 161.7 243.5 197.7"/><polygon class="cls-6" points="171.17 233.72 171.17 305.65 99.17 269.43 99.24 197.75 171.17 233.72"/><polygon class="cls-6" points="243.17 197.7 243.17 269.7 171.17 305.7 171.17 233.7 243.17 197.7"/></g></g><g id="CUBO-25" data-name="CUBO"><polygon class="cls-2" points="540.5 143.7 468.5 179.7 396.5 143.7 468.5 107.7 540.5 143.7"/><polygon class="cls-3" points="468.17 179.72 468.17 251.65 396.17 215.43 396.24 143.75 468.17 179.72"/><polygon class="cls-4" points="540.17 143.7 540.17 215.7 468.17 251.7 468.17 179.7 540.17 143.7"/><g class="cls-5"><polygon class="cls-6" points="540.5 143.7 468.5 179.7 396.5 143.7 468.5 107.7 540.5 143.7"/><polygon class="cls-6" points="468.17 179.72 468.17 251.65 396.17 215.43 396.24 143.75 468.17 179.72"/><polygon class="cls-6" points="540.17 143.7 540.17 215.7 468.17 251.7 468.17 179.7 540.17 143.7"/></g></g><g id="CUBO-26" data-name="CUBO"><polygon class="cls-2" points="441.5 197.7 369.5 233.7 297.5 197.7 369.5 161.7 441.5 197.7"/><polygon class="cls-3" points="369.17 233.72 369.17 305.65 297.17 269.43 297.24 197.75 369.17 233.72"/><polygon class="cls-4" points="441.17 197.7 441.17 269.7 369.17 305.7 369.17 233.7 441.17 197.7"/><g class="cls-5"><polygon class="cls-6" points="441.5 197.7 369.5 233.7 297.5 197.7 369.5 161.7 441.5 197.7"/><polygon class="cls-6" points="369.17 233.72 369.17 305.65 297.17 269.43 297.24 197.75 369.17 233.72"/><polygon class="cls-6" points="441.17 197.7 441.17 269.7 369.17 305.7 369.17 233.7 441.17 197.7"/></g></g><g id="CUBO-27" data-name="CUBO"><polygon class="cls-2" points="342.5 251.7 270.5 287.7 198.5 251.7 270.5 215.7 342.5 251.7"/><polygon class="cls-3" points="270.17 287.72 270.17 359.65 198.17 323.43 198.24 251.75 270.17 287.72"/><polygon class="cls-4" points="342.17 251.7 342.17 323.7 270.17 359.7 270.17 287.7 342.17 251.7"/><g class="cls-5"><polygon class="cls-6" points="342.5 251.7 270.5 287.7 198.5 251.7 270.5 215.7 342.5 251.7"/><polygon class="cls-6" points="270.17 287.72 270.17 359.65 198.17 323.43 198.24 251.75 270.17 287.72"/><polygon class="cls-6" points="342.17 251.7 342.17 323.7 270.17 359.7 270.17 287.7 342.17 251.7"/></g></g></g></g></g></svg>